<?xml version="1.0" encoding="UTF-8"?>
<svg fill="red" width="700pt" height="700pt" version="1.1" viewBox="0 0 700 700" xmlns="http://www.w3.org/2000/svg">
 <g>
  <path d="m518.66 173.41c0 13.262-10.75 24.012-24.008 24.012-13.262 0-24.012-10.75-24.012-24.012 0-13.258 10.75-24.008 24.012-24.008 13.258 0 24.008 10.75 24.008 24.008"/>
  <path d="m416.71 251.35c20.672 20.684 48.715 32.301 77.957 32.305 29.242 0.003906 57.289-11.609 77.969-32.285 20.68-20.676 32.297-48.723 32.297-77.965s-11.617-57.285-32.297-77.961c-20.68-20.676-48.727-32.293-77.969-32.289-29.242 0.003906-57.285 11.625-77.957 32.305-20.762 20.625-32.438 48.68-32.438 77.945s11.676 57.32 32.438 77.945zm18.551-137.32v0.003906c15.75-15.762 37.113-24.617 59.395-24.625 22.281-0.003906 43.652 8.8438 59.41 24.598 15.758 15.754 24.609 37.121 24.609 59.402s-8.8516 43.652-24.609 59.406c-15.758 15.754-37.129 24.602-59.41 24.594-22.281-0.003906-43.645-8.8594-59.395-24.621-15.809-15.719-24.695-37.086-24.695-59.379 0-22.289 8.8867-43.66 24.695-59.375z"/>
  <path d="m619.9 280.09c-2.4609-2.4609-5.8008-3.8438-9.2852-3.8438-3.4805 0-6.8203 1.3828-9.2812 3.8438-38.211 37.637-93.531 52.164-145.3 38.148-51.773-14.012-92.215-54.453-106.23-106.22-14.012-51.773 0.51172-107.09 38.148-145.3 2.6055-2.4297 4.1133-5.8125 4.1758-9.3711 0.0625-3.5625-1.3242-6.9961-3.8438-9.5117-2.5156-2.5195-5.9492-3.9062-9.5117-3.8438-3.5586 0.0625-6.9414 1.5703-9.3711 4.1758-23.164 23.109-39.461 52.199-47.07 84.023-7.6094 31.824-6.2344 65.137 3.9688 96.227l-50.906 50.906-25.848-25.918 9.1172-9.1367v0.003906c2.6875-2.4062 4.2656-5.8164 4.3633-9.4219 0.097656-3.6094-1.293-7.0977-3.8477-9.6445-2.5547-2.5508-6.0469-3.9336-9.6523-3.832-3.6055 0.10547-7.0117 1.6914-9.4141 4.3828l-18.41 18.359-18.41 18.391c-4.9766 5.1484-4.9102 13.332 0.15234 18.398 5.0586 5.0664 13.246 5.1406 18.398 0.16797l9.1523-9.1172 25.848 25.848-70.316 70.316c-13.375 13.363-21.621 31.008-23.293 49.84-1.6719 18.836 3.3438 37.656 14.16 53.164-13.609 12.074-31.367 18.406-49.543 17.676-10.852-2.3281-19.723-11.691-26.25-27.844-2.7461-6.7109-10.41-9.9297-17.125-7.1836-6.7109 2.7461-9.9297 10.41-7.1836 17.125 6.5352 21.359 23.621 37.844 45.203 43.609 3.793 0.79297 7.6562 1.1914 11.531 1.1914 22.805-1.8633 44.449-10.852 61.863-25.691 15.477 11.5 34.57 17.051 53.797 15.641 19.23-1.4102 37.309-9.6875 50.941-23.324l140.11-140.11c30.977 9.9102 64.082 11.094 95.688 3.4258s60.484-23.891 83.477-46.895c2.4922-2.4648 3.8906-5.8242 3.8906-9.3281 0-3.5039-1.3984-6.8633-3.8906-9.3281zm-337.82 183.66c-10.355 9.7969-24.059 15.273-38.316 15.316-14.254 0.042969-27.988-5.3555-38.402-15.09v-0.10547s-0.17578-0.10547-0.26172-0.19141c-10.184-10.207-15.898-24.039-15.898-38.457 0-14.418 5.7148-28.246 15.898-38.457l132.12-132.14c17.027 33.078 44.059 59.938 77.242 76.754z"/>
 </g>
</svg>
