<?xml version="1.0" encoding="UTF-8"?>
<svg fill="red" width="700pt" height="700pt" version="1.1" viewBox="0 0 700 700" xmlns="http://www.w3.org/2000/svg" xmlns:xlink="http://www.w3.org/1999/xlink">
 <defs>
  <symbol id="h" overflow="visible">
   <path d="m14.656-0.875c-0.76172 0.39844-1.5547 0.69531-2.375 0.89062-0.8125 0.19531-1.6641 0.29688-2.5469 0.29688-2.6562 0-4.7617-0.73828-6.3125-2.2188-1.5547-1.4883-2.3281-3.5039-2.3281-6.0469 0-2.5508 0.77344-4.5664 2.3281-6.0469 1.5508-1.4883 3.6562-2.2344 6.3125-2.2344 0.88281 0 1.7344 0.10156 2.5469 0.29688 0.82031 0.19922 1.6133 0.49609 2.375 0.89062v3.2969c-0.76172-0.51953-1.5117-0.89844-2.25-1.1406-0.74219-0.23828-1.5234-0.35938-2.3438-0.35938-1.4688 0-2.625 0.46875-3.4688 1.4062-0.83594 0.9375-1.25 2.2344-1.25 3.8906 0 1.6484 0.41406 2.9375 1.25 3.875 0.84375 0.9375 2 1.4062 3.4688 1.4062 0.82031 0 1.6016-0.11719 2.3438-0.35938 0.73828-0.23828 1.4883-0.61719 2.25-1.1406z"/>
  </symbol>
  <symbol id="c" overflow="visible">
   <path d="m10.719-8.7031c-0.33594-0.15625-0.66797-0.26953-1-0.34375-0.32422-0.082031-0.65625-0.125-1-0.125-0.98047 0-1.7344 0.32031-2.2656 0.95312-0.53125 0.625-0.79688 1.5273-0.79688 2.7031v5.5156h-3.8125v-11.969h3.8125v1.9688c0.48828-0.78125 1.0508-1.3477 1.6875-1.7031 0.64453-0.36328 1.4102-0.54688 2.2969-0.54688 0.13281 0 0.27344 0.007812 0.42188 0.015625 0.14453 0.011719 0.36328 0.03125 0.65625 0.0625z"/>
  </symbol>
  <symbol id="a" overflow="visible">
   <path d="m13.781-6.0156v1.0938h-8.9375c0.09375 0.89844 0.41406 1.5703 0.96875 2.0156 0.55078 0.44922 1.3281 0.67188 2.3281 0.67188 0.80078 0 1.625-0.11719 2.4688-0.35938 0.84375-0.23828 1.7109-0.59766 2.6094-1.0781v2.9531c-0.90625 0.33594-1.8125 0.58984-2.7188 0.76562s-1.8125 0.26562-2.7188 0.26562c-2.1562 0-3.8398-0.54688-5.0469-1.6406-1.1992-1.1016-1.7969-2.6484-1.7969-4.6406 0-1.9453 0.58594-3.4766 1.7656-4.5938 1.1758-1.125 2.8008-1.6875 4.875-1.6875 1.875 0 3.375 0.57031 4.5 1.7031 1.1328 1.125 1.7031 2.6367 1.7031 4.5312zm-3.9375-1.2656c0-0.72656-0.21484-1.3125-0.64062-1.75-0.41797-0.44531-0.96875-0.67188-1.6562-0.67188-0.74219 0-1.3438 0.21094-1.8125 0.625-0.46094 0.41797-0.74609 1.0156-0.85938 1.7969z"/>
  </symbol>
  <symbol id="m" overflow="visible">
   <path d="m7.2031-5.3906c-0.80469 0-1.4062 0.13672-1.8125 0.40625-0.39844 0.27344-0.59375 0.67188-0.59375 1.2031 0 0.48047 0.16016 0.85938 0.48438 1.1406 0.32031 0.27344 0.77344 0.40625 1.3594 0.40625 0.71875 0 1.3203-0.25391 1.8125-0.76562 0.48828-0.51953 0.73438-1.1719 0.73438-1.9531v-0.4375zm5.8438-1.4375v6.8281h-3.8594v-1.7656c-0.51172 0.71875-1.0898 1.2461-1.7344 1.5781-0.63672 0.33203-1.418 0.5-2.3438 0.5-1.2422 0-2.2461-0.35938-3.0156-1.0781-0.77344-0.72656-1.1562-1.6719-1.1562-2.8281 0-1.3945 0.47656-2.4219 1.4375-3.0781 0.96875-0.65625 2.4883-0.98438 4.5625-0.98438h2.25v-0.29688c0-0.60156-0.24219-1.0469-0.71875-1.3281-0.48047-0.28125-1.2266-0.42188-2.2344-0.42188-0.8125 0-1.5742 0.085937-2.2812 0.25-0.71094 0.15625-1.3672 0.40234-1.9688 0.73438v-2.9219c0.82031-0.19531 1.6445-0.34766 2.4688-0.45312 0.82031-0.10156 1.6484-0.15625 2.4844-0.15625 2.1562 0 3.7109 0.42969 4.6719 1.2812 0.95703 0.84375 1.4375 2.2266 1.4375 4.1406z"/>
  </symbol>
  <symbol id="b" overflow="visible">
   <path d="m6.0156-15.359v3.3906h3.9375v2.7344h-3.9375v5.0781c0 0.55469 0.10938 0.92969 0.32812 1.125 0.21875 0.19922 0.65625 0.29688 1.3125 0.29688h1.9688v2.7344h-3.2812c-1.5117 0-2.5859-0.3125-3.2188-0.9375-0.625-0.63281-0.9375-1.707-0.9375-3.2188v-5.0781h-1.9062v-2.7344h1.9062v-3.3906z"/>
  </symbol>
  <symbol id="l" overflow="visible">
   <path d="m9.9688-10.219v-6.4062h3.8594v16.625h-3.8594v-1.7344c-0.52344 0.71094-1.1016 1.2305-1.7344 1.5625-0.63672 0.32031-1.3711 0.48438-2.2031 0.48438-1.4688 0-2.6797-0.58203-3.625-1.75-0.94922-1.1758-1.4219-2.6875-1.4219-4.5312s0.47266-3.3477 1.4219-4.5156c0.94531-1.1758 2.1562-1.7656 3.625-1.7656 0.83203 0 1.5664 0.16797 2.2031 0.5 0.63281 0.32422 1.2109 0.83594 1.7344 1.5312zm-2.5156 7.75c0.82031 0 1.4453-0.29688 1.875-0.89062 0.42578-0.60156 0.64062-1.4727 0.64062-2.6094 0-1.1445-0.21484-2.0156-0.64062-2.6094-0.42969-0.59375-1.0547-0.89062-1.875-0.89062-0.8125 0-1.4336 0.29688-1.8594 0.89062-0.42969 0.59375-0.64062 1.4648-0.64062 2.6094 0 1.1367 0.21094 2.0078 0.64062 2.6094 0.42578 0.59375 1.0469 0.89062 1.8594 0.89062z"/>
  </symbol>
  <symbol id="k" overflow="visible">
   <path d="m8.2031-2.4688c0.82031 0 1.4453-0.29688 1.875-0.89062 0.42578-0.60156 0.64062-1.4727 0.64062-2.6094 0-1.1445-0.21484-2.0156-0.64062-2.6094-0.42969-0.59375-1.0547-0.89062-1.875-0.89062-0.82422 0-1.4531 0.30469-1.8906 0.90625-0.4375 0.59375-0.65625 1.4609-0.65625 2.5938 0 1.1367 0.21875 2.0078 0.65625 2.6094 0.4375 0.59375 1.0664 0.89062 1.8906 0.89062zm-2.5469-7.75c0.53125-0.69531 1.1133-1.207 1.75-1.5312 0.64453-0.33203 1.3828-0.5 2.2188-0.5 1.4688 0 2.6758 0.58984 3.625 1.7656 0.94531 1.168 1.4219 2.6719 1.4219 4.5156s-0.47656 3.3555-1.4219 4.5312c-0.94922 1.168-2.1562 1.75-3.625 1.75-0.83594 0-1.5742-0.16797-2.2188-0.5-0.63672-0.33203-1.2188-0.84766-1.75-1.5469v1.7344h-3.8125v-16.625h3.8125z"/>
  </symbol>
  <symbol id="j" overflow="visible">
   <path d="m0.26562-11.969h3.8281l3.2188 8.125 2.7344-8.125h3.8125l-5.0312 13.094c-0.5 1.332-1.0898 2.2656-1.7656 2.7969-0.66797 0.53125-1.5547 0.79688-2.6562 0.79688h-2.2188v-2.5h1.2031c0.64453 0 1.1133-0.10547 1.4062-0.3125 0.30078-0.21094 0.53125-0.57812 0.6875-1.1094l0.10938-0.34375z"/>
  </symbol>
  <symbol id="i" overflow="visible">
   <path d="m0.65625-15.953h3.9375l2.75 11.594 2.7344-11.594h3.9688l2.7344 11.594 2.75-11.594h3.9062l-3.75 15.953h-4.75l-2.8906-12.125-2.8594 12.125h-4.75z"/>
  </symbol>
  <symbol id="g" overflow="visible">
   <path d="m2.0156-15.953h11.094v3.1094h-6.9844v2.9688h6.5625v3.1094h-6.5625v3.6562h7.2188v3.1094h-11.328z"/>
  </symbol>
  <symbol id="z" overflow="visible">
   <path d="m8.3906-9.7656c0.65625 0 1.1484-0.14062 1.4844-0.42188 0.33203-0.28906 0.5-0.71094 0.5-1.2656 0-0.55078-0.16797-0.97266-0.5-1.2656-0.33594-0.28906-0.82812-0.4375-1.4844-0.4375h-2.2656v3.3906zm0.14062 6.9688c0.82031 0 1.4414-0.17188 1.8594-0.51562 0.41406-0.35156 0.625-0.88281 0.625-1.5938 0-0.6875-0.21094-1.2031-0.625-1.5469-0.40625-0.34375-1.0273-0.51562-1.8594-0.51562h-2.4062v4.1719zm3.8281-5.7344c0.88281 0.25 1.5664 0.72656 2.0469 1.4219 0.48828 0.6875 0.73438 1.5312 0.73438 2.5312 0 1.543-0.52344 2.6953-1.5625 3.4531-1.043 0.75-2.625 1.125-4.75 1.125h-6.8125v-15.953h6.1719c2.207 0 3.8047 0.33984 4.7969 1.0156 1 0.66797 1.5 1.7344 1.5 3.2031 0 0.78125-0.18359 1.4492-0.54688 2-0.36719 0.54297-0.89062 0.94531-1.5781 1.2031z"/>
  </symbol>
  <symbol id="y" overflow="visible">
   <path d="m0.10938-15.953h14.688v3.1094h-5.2812v12.844h-4.1094v-12.844h-5.2969z"/>
  </symbol>
  <symbol id="x" overflow="visible">
   <path d="m2.0156-15.953h4.1094v6.0781h6.0625v-6.0781h4.1094v15.953h-4.1094v-6.7656h-6.0625v6.7656h-4.1094z"/>
  </symbol>
  <symbol id="w" overflow="visible">
   <path d="m9.2969-13.25c-1.2617 0-2.2344 0.46484-2.9219 1.3906-0.6875 0.91797-1.0312 2.2188-1.0312 3.9062 0 1.668 0.34375 2.9648 1.0312 3.8906 0.6875 0.92969 1.6602 1.3906 2.9219 1.3906 1.2578 0 2.2344-0.46094 2.9219-1.3906 0.6875-0.92578 1.0312-2.2227 1.0312-3.8906 0-1.6875-0.34375-2.9883-1.0312-3.9062-0.6875-0.92578-1.6641-1.3906-2.9219-1.3906zm0-2.9844c2.5625 0 4.5664 0.73438 6.0156 2.2031 1.457 1.4688 2.1875 3.4961 2.1875 6.0781 0 2.5742-0.73047 4.5938-2.1875 6.0625-1.4492 1.4688-3.4531 2.2031-6.0156 2.2031s-4.5742-0.73438-6.0312-2.2031c-1.4492-1.4688-2.1719-3.4883-2.1719-6.0625 0-2.582 0.72266-4.6094 2.1719-6.0781 1.457-1.4688 3.4688-2.2031 6.0312-2.2031z"/>
  </symbol>
  <symbol id="e" overflow="visible">
   <path d="m2.0156-15.953h6.8125c2.0312 0 3.5859 0.45312 4.6719 1.3594 1.0938 0.89844 1.6406 2.1797 1.6406 3.8438 0 1.6797-0.54688 2.9688-1.6406 3.875-1.0859 0.89844-2.6406 1.3438-4.6719 1.3438h-2.7031v5.5312h-4.1094zm4.1094 2.9844v4.4531h2.2656c0.80078 0 1.4141-0.19141 1.8438-0.57812 0.4375-0.38281 0.65625-0.9375 0.65625-1.6562 0-0.70703-0.21875-1.2539-0.65625-1.6406-0.42969-0.38281-1.043-0.57812-1.8438-0.57812z"/>
  </symbol>
  <symbol id="v" overflow="visible">
   <path d="m13.109-15.438v3.375c-0.875-0.39453-1.7305-0.69141-2.5625-0.89062-0.83594-0.19531-1.6211-0.29688-2.3594-0.29688-0.99219 0-1.7188 0.13672-2.1875 0.40625-0.46875 0.27344-0.70312 0.6875-0.70312 1.25 0 0.42969 0.15625 0.76172 0.46875 1 0.32031 0.24219 0.89844 0.44922 1.7344 0.625l1.75 0.34375c1.7695 0.35547 3.0312 0.89844 3.7812 1.625 0.75 0.73047 1.125 1.7617 1.125 3.0938 0 1.7617-0.52734 3.0742-1.5781 3.9375-1.043 0.85547-2.6328 1.2812-4.7656 1.2812-1.0117 0-2.0273-0.10156-3.0469-0.29688-1.0234-0.1875-2.043-0.46875-3.0625-0.84375v-3.4688c1.0195 0.53125 2.0039 0.9375 2.9531 1.2188 0.95703 0.27344 1.875 0.40625 2.75 0.40625 0.90625 0 1.5938-0.14453 2.0625-0.4375 0.47656-0.30078 0.71875-0.73438 0.71875-1.2969 0-0.48828-0.16406-0.86719-0.48438-1.1406-0.32422-0.26953-0.96875-0.51562-1.9375-0.73438l-1.5938-0.35938c-1.5938-0.33203-2.7617-0.875-3.5-1.625-0.74219-0.75-1.1094-1.7578-1.1094-3.0312 0-1.582 0.50781-2.8008 1.5312-3.6562 1.0312-0.85156 2.5078-1.2812 4.4375-1.2812 0.875 0 1.7734 0.070313 2.7031 0.20312 0.92578 0.125 1.8828 0.32422 2.875 0.59375z"/>
  </symbol>
  <symbol id="f" overflow="visible">
   <path d="m2.0156-15.953h4.1094v12.844h7.2188v3.1094h-11.328z"/>
  </symbol>
  <symbol id="u" overflow="visible">
   <path d="m9.7031-16.625v2.5156h-2.1094c-0.54297 0-0.92188 0.10156-1.1406 0.29688-0.21094 0.19922-0.3125 0.53906-0.3125 1.0156v0.82812h3.2656v2.7344h-3.2656v9.2344h-3.8281v-9.2344h-1.8906v-2.7344h1.8906v-0.82812c0-1.3008 0.36328-2.2656 1.0938-2.8906 0.72656-0.625 1.8516-0.9375 3.375-0.9375z"/>
  </symbol>
  <symbol id="d" overflow="visible">
   <path d="m7.5312-9.5156c-0.84375 0-1.4922 0.30859-1.9375 0.92188-0.44922 0.60547-0.67188 1.4805-0.67188 2.625 0 1.1484 0.22266 2.0273 0.67188 2.6406 0.44531 0.60547 1.0938 0.90625 1.9375 0.90625 0.83203 0 1.4688-0.30078 1.9062-0.90625 0.44531-0.61328 0.67188-1.4922 0.67188-2.6406 0-1.1445-0.22656-2.0195-0.67188-2.625-0.4375-0.61328-1.0742-0.92188-1.9062-0.92188zm0-2.7344c2.0508 0 3.6562 0.55859 4.8125 1.6719 1.1641 1.1055 1.75 2.6406 1.75 4.6094s-0.58594 3.5117-1.75 4.625c-1.1562 1.1055-2.7617 1.6562-4.8125 1.6562-2.0625 0-3.6797-0.55078-4.8438-1.6562-1.168-1.1133-1.75-2.6562-1.75-4.625s0.58203-3.5039 1.75-4.6094c1.1641-1.1133 2.7812-1.6719 4.8438-1.6719z"/>
  </symbol>
  <symbol id="t" overflow="visible">
   <path d="m12.922-9.9688c0.48828-0.75 1.0625-1.3164 1.7188-1.7031 0.66406-0.38281 1.3984-0.57812 2.2031-0.57812 1.375 0 2.4219 0.42969 3.1406 1.2812 0.71875 0.84375 1.0781 2.0742 1.0781 3.6875v7.2812h-3.8438v-6.2344c0.007812-0.09375 0.015625-0.1875 0.015625-0.28125v-0.4375c0-0.84375-0.125-1.457-0.375-1.8438-0.25-0.38281-0.65234-0.57812-1.2031-0.57812-0.73047 0-1.293 0.30469-1.6875 0.90625-0.38672 0.59375-0.58984 1.4609-0.60938 2.5938v5.875h-3.8438v-6.2344c0-1.3203-0.11719-2.1758-0.34375-2.5625-0.23047-0.38281-0.63672-0.57812-1.2188-0.57812-0.73047 0-1.2969 0.30469-1.7031 0.90625-0.39844 0.60547-0.59375 1.4648-0.59375 2.5781v5.8906h-3.8438v-11.969h3.8438v1.75c0.46875-0.66406 1.0039-1.1719 1.6094-1.5156 0.61328-0.34375 1.2891-0.51562 2.0312-0.51562 0.82031 0 1.5508 0.19922 2.1875 0.59375 0.63281 0.39844 1.1133 0.96094 1.4375 1.6875z"/>
  </symbol>
  <symbol id="s" overflow="visible">
   <path d="m13.859-7.2812v7.2812h-3.8438v-5.5469c0-1.0508-0.027344-1.7695-0.078125-2.1562-0.042969-0.39453-0.12109-0.6875-0.23438-0.875-0.14844-0.25-0.35156-0.44141-0.60938-0.57812-0.25-0.14453-0.54297-0.21875-0.875-0.21875-0.79297 0-1.418 0.3125-1.875 0.9375-0.46094 0.61719-0.6875 1.4648-0.6875 2.5469v5.8906h-3.8125v-16.625h3.8125v6.4062c0.58203-0.69531 1.1953-1.207 1.8438-1.5312 0.64453-0.33203 1.3594-0.5 2.1406-0.5 1.3828 0 2.4297 0.42969 3.1406 1.2812 0.71875 0.84375 1.0781 2.0742 1.0781 3.6875z"/>
  </symbol>
  <symbol id="r" overflow="visible">
   <path d="m2.0156-15.953h4.5781l5.8125 10.938v-10.938h3.8906v15.953h-4.5938l-5.7969-10.938v10.938h-3.8906z"/>
  </symbol>
  <symbol id="q" overflow="visible">
   <path d="m1.7031-4.6562v-7.3125h3.8438v1.2031c0 0.64844-0.007813 1.4609-0.015625 2.4375v1.9688c0 0.96094 0.023438 1.6523 0.078125 2.0781 0.050781 0.41797 0.13281 0.72656 0.25 0.92188 0.15625 0.25 0.35938 0.44531 0.60938 0.57812 0.25781 0.13672 0.55078 0.20312 0.875 0.20312 0.80078 0 1.4258-0.30469 1.875-0.92188 0.45703-0.61328 0.6875-1.4688 0.6875-2.5625v-5.9062h3.8281v11.969h-3.8281v-1.7344c-0.57422 0.69922-1.1836 1.2148-1.8281 1.5469-0.64844 0.33203-1.3555 0.5-2.125 0.5-1.3867 0-2.4453-0.42188-3.1719-1.2656-0.71875-0.85156-1.0781-2.0859-1.0781-3.7031z"/>
  </symbol>
  <symbol id="p" overflow="visible">
   <path d="m13.859-7.2812v7.2812h-3.8438v-5.5781c0-1.0312-0.027344-1.7383-0.078125-2.125-0.042969-0.39453-0.12109-0.6875-0.23438-0.875-0.14844-0.25-0.35156-0.44141-0.60938-0.57812-0.25-0.14453-0.54297-0.21875-0.875-0.21875-0.79297 0-1.418 0.3125-1.875 0.9375-0.46094 0.61719-0.6875 1.4648-0.6875 2.5469v5.8906h-3.8125v-11.969h3.8125v1.75c0.58203-0.69531 1.1953-1.207 1.8438-1.5312 0.64453-0.33203 1.3594-0.5 2.1406-0.5 1.3828 0 2.4297 0.42969 3.1406 1.2812 0.71875 0.84375 1.0781 2.0742 1.0781 3.6875z"/>
  </symbol>
  <symbol id="o" overflow="visible">
   <path d="m1.8438-11.969h3.8125v11.75c0 1.6016-0.38672 2.8281-1.1562 3.6719-0.76172 0.84375-1.8711 1.2656-3.3281 1.2656h-1.8906v-2.5h0.65625c0.72656 0 1.2266-0.16797 1.5-0.5 0.26953-0.32422 0.40625-0.96875 0.40625-1.9375zm0-4.6562h3.8125v3.125h-3.8125z"/>
  </symbol>
  <symbol id="n" overflow="visible">
   <path d="m11.5-11.594v3.125c-0.52344-0.35156-1.043-0.61328-1.5625-0.78125-0.52344-0.17578-1.0625-0.26562-1.625-0.26562-1.0742 0-1.9062 0.3125-2.5 0.9375s-0.89062 1.4961-0.89062 2.6094c0 1.1172 0.29688 1.9844 0.89062 2.6094s1.4258 0.9375 2.5 0.9375c0.59375 0 1.1562-0.085937 1.6875-0.26562 0.53906-0.17578 1.0391-0.44141 1.5-0.79688v3.125c-0.59375 0.23047-1.1992 0.39453-1.8125 0.5-0.61719 0.11328-1.2344 0.17188-1.8594 0.17188-2.1562 0-3.8438-0.55078-5.0625-1.6562-1.2188-1.1133-1.8281-2.6562-1.8281-4.625s0.60938-3.5039 1.8281-4.6094c1.2188-1.1133 2.9062-1.6719 5.0625-1.6719 0.625 0 1.2383 0.058594 1.8438 0.17188 0.61328 0.10547 1.2227 0.26562 1.8281 0.48438z"/>
  </symbol>
 </defs>
 <g>
  <path d="m236.25 445.77v18.418c0.054688 5.5977 2.2305 10.969 6.0859 15.027 3.8555 4.0586 9.1055 6.5039 14.695 6.8477 0.75781 2.0703 1.6055 4.1289 2.5391 6.168-3.7461 4.2188-5.7383 9.707-5.5664 15.344s2.4883 10.992 6.4844 14.977l13.125 13.125c3.9805 3.9922 9.3398 6.3125 14.977 6.4844 5.6367 0.17188 11.125-1.8203 15.34-5.5664 2.0117 0.93359 4.0703 1.7773 6.168 2.5391h0.003906c0.33984 5.5859 2.7891 10.836 6.8477 14.691 4.0586 3.8594 9.4258 6.0312 15.027 6.0898h18.418c5.5977-0.058593 10.965-2.2305 15.027-6.0898 4.0586-3.8555 6.5039-9.1055 6.8477-14.691 2.0703-0.75781 4.1289-1.6055 6.168-2.5391 4.2148 3.7461 9.7031 5.7383 15.344 5.5664 5.6367-0.17188 10.992-2.4922 14.977-6.4844l13.125-13.125c3.9922-3.9844 6.3125-9.3398 6.4844-14.977 0.16797-5.6367-1.8203-11.125-5.5664-15.344 0.93359-2.0117 1.7773-4.0703 2.5391-6.168h-0.003906c5.5898-0.34375 10.84-2.7891 14.695-6.8477s6.0312-9.4297 6.0859-15.027v-18.418c-0.054688-5.5977-2.2305-10.969-6.0859-15.027-3.8555-4.0586-9.1055-6.5039-14.695-6.8477-0.75781-2.0703-1.6055-4.1289-2.5391-6.168h0.003906c3.7461-4.2188 5.7344-9.707 5.5664-15.344-0.17188-5.6367-2.4922-10.996-6.4844-14.977l-13.125-13.125c-3.9844-3.9922-9.3398-6.3125-14.977-6.4844-5.6406-0.17188-11.129 1.8203-15.344 5.5664-2.0117-0.93359-4.0703-1.7773-6.168-2.5391-0.34375-5.5859-2.7891-10.836-6.8477-14.695-4.0625-3.8555-9.4297-6.0273-15.027-6.0859h-18.375c-5.5977 0.058593-10.969 2.2305-15.027 6.0859-4.0586 3.8594-6.5039 9.1094-6.8477 14.695-2.0703 0.75781-4.1289 1.6055-6.168 2.5391-4.2188-3.7461-9.707-5.7383-15.344-5.5664-5.6367 0.17188-10.996 2.4922-14.977 6.4844l-13.125 13.125c-3.9922 3.9805-6.3125 9.3398-6.4844 14.977-0.17188 5.6367 1.8203 11.125 5.5664 15.344-0.93359 2.0117-1.7773 4.0703-2.5391 6.168-5.5938 0.33203-10.855 2.7734-14.723 6.832-3.8633 4.0625-6.0469 9.4375-6.1016 15.043zm34.039-4.5938c1.8438-9.5195 5.5938-18.566 11.023-26.602l-8.3984-8.3984c-0.87109-0.86328-1.3594-2.0352-1.3594-3.2617 0-1.2227 0.48828-2.3945 1.3594-3.2578l13.125-13.125c0.85938-0.86719 2.0352-1.3555 3.2578-1.3555s2.3984 0.48828 3.2578 1.3555l8.3984 8.3984h0.003906c8.0312-5.4297 17.078-9.1797 26.598-11.023v-11.812c0-2.4883 1.9766-4.5234 4.4648-4.5938h18.418c1.2188 0 2.3867 0.48438 3.25 1.3438 0.85938 0.86328 1.3438 2.0312 1.3438 3.25v11.898c9.5195 1.8477 18.566 5.5977 26.602 11.027l8.3984-8.3984v-0.003906c0.86328-0.86719 2.0352-1.3555 3.2578-1.3555 1.2266 0 2.3984 0.48828 3.2617 1.3555l13.125 13.125c0.86719 0.86328 1.3555 2.0391 1.3555 3.2617s-0.48828 2.3945-1.3555 3.2578l-8.4023 8.4023c5.4336 8.0312 9.1836 17.078 11.027 26.598h11.898c2.4883 0.023437 4.5039 2.0195 4.5508 4.5078v18.418c0 2.5352-2.0586 4.5938-4.5938 4.5938h-11.945c-1.8438 9.5195-5.5938 18.566-11.023 26.602l8.3984 8.3984c0.87109 0.86328 1.3594 2.0352 1.3594 3.2578 0 1.2266-0.48828 2.3984-1.3594 3.2617l-13.125 13.125c-0.85938 0.86719-2.0352 1.3555-3.2578 1.3555s-2.3984-0.48828-3.2578-1.3555l-8.4023-8.4023c-8.0312 5.4336-17.078 9.1836-26.598 11.027v11.898c-0.023437 2.4688-1.9961 4.4805-4.4648 4.5508h-18.461c-2.5391 0-4.5938-2.0586-4.5938-4.5938v-11.898c-9.5195-1.8477-18.566-5.5977-26.602-11.027l-8.3984 8.3984v0.003906c-0.86328 0.86719-2.0352 1.3555-3.2617 1.3555-1.2227 0-2.3945-0.48828-3.2578-1.3555l-13.125-13.125c-0.86719-0.86328-1.3555-2.0391-1.3555-3.2617s0.48828-2.3945 1.3555-3.2578l8.3984-8.3984v-0.003906c-5.4297-8.0312-9.1797-17.078-11.023-26.598h-11.812c-2.5039 0-4.5469-2.0039-4.5938-4.5078v-18.418c0-1.2188 0.48438-2.3867 1.3438-3.25 0.86328-0.85938 2.0312-1.3438 3.25-1.3438z"/>
  <path d="m341.25 507.5c18.043 0.023438 34.836-9.2188 44.469-24.477 9.6328-15.262 10.754-34.398 2.9648-50.676-7.7852-16.277-23.383-27.418-41.309-29.496-4.832-0.55859-9.1992 2.9102-9.7578 7.7422-0.55469 4.832 2.9141 9.1992 7.7461 9.7578 9.9648 1.168 18.949 6.5547 24.676 14.797 5.7227 8.2422 7.6328 18.543 5.2461 28.289-2.3867 9.7461-8.8438 18-17.727 22.664-8.8828 4.6641-19.344 5.2891-28.723 1.7227-9.375-3.5703-16.77-10.996-20.305-20.387s-2.8672-19.848 1.832-28.711c2.2812-4.2656 0.67578-9.5742-3.5898-11.859-4.2617-2.2812-9.5703-0.67578-11.855 3.5898-8.5977 16.262-8.0625 35.836 1.418 51.598 9.4805 15.766 26.52 25.418 44.914 25.445z"/>
  <path d="m612.5 223.12h-13.125c-4.6094-25.492-13.125-50.121-25.242-73.02-1.0703-2.0898-2.9297-3.6641-5.168-4.3672-2.2422-0.70312-4.668-0.47656-6.7383 0.625-2.0703 1.1016-3.6133 2.9922-4.2773 5.2422-0.66797 2.25-0.39844 4.6719 0.73828 6.7266 10.871 20.34 18.684 42.172 23.188 64.793h-463.75c8.9688-44.742 30.668-85.941 62.488-118.64 31.82-32.707 72.41-55.527 116.89-65.719v109.99c0 4.6406 1.8438 9.0938 5.125 12.375s7.7344 5.125 12.375 5.125h70c4.6406 0 9.0938-1.8438 12.375-5.125s5.125-7.7344 5.125-12.375v-109.95c49.766 11.297 94.527 38.422 127.57 77.309 1.3789 2.1172 3.6055 3.5352 6.1055 3.8906 2.5039 0.35547 5.0352-0.38672 6.9492-2.0391 1.9102-1.6523 3.0156-4.0469 3.0312-6.5742 0.011719-2.5273-1.0664-4.9375-2.9609-6.6094-36.316-42.777-85.801-72.293-140.7-83.914v-3.3672c0-4.6406-1.8438-9.0938-5.125-12.375s-7.7344-5.125-12.375-5.125h-70c-4.6406 0-9.0938 1.8438-12.375 5.125s-5.125 7.7344-5.125 12.375v3.3672c-49.117 10.512-94.023 35.332-129.06 71.324-35.035 35.992-58.633 81.551-67.816 130.93h-13.125c-4.6406 0-9.0938 1.8438-12.375 5.125s-5.125 7.7344-5.125 12.375v20.781c0 4.6406 1.8438 9.0938 5.125 12.375s7.7344 5.125 12.375 5.125h51.844c-16.824 8.2617-30.059 22.367-37.234 39.684-7.1758 17.312-7.7969 36.648-1.75 54.387 6.0508 17.738 18.352 32.668 34.609 41.992v136.63c0 4.832 3.918 8.75 8.75 8.75s8.75-3.918 8.75-8.75v-129.02c14.605 4.3281 30.152 4.3281 44.758 0v129.02c0 4.832 3.9141 8.75 8.75 8.75 4.832 0 8.75-3.918 8.75-8.75v-136.55c16.297-9.2891 28.652-24.203 34.742-41.949 6.0898-17.746 5.4961-37.105-1.6641-54.445-7.1602-17.34-20.398-31.477-37.234-39.754h43.18c4.832 0 8.75-3.918 8.75-8.75s-3.918-8.75-8.75-8.75h-166.25v-20.781h525v20.781h-315c-4.832 0-8.75 3.918-8.75 8.75s3.918 8.75 8.75 8.75h178.72c-16.824 8.2617-30.059 22.367-37.234 39.684-7.1758 17.312-7.7969 36.648-1.75 54.387 6.0508 17.738 18.352 32.668 34.609 41.992v136.63c0 4.832 3.918 8.75 8.75 8.75s8.75-3.918 8.75-8.75v-129.02c14.605 4.3281 30.152 4.3281 44.758 0v129.02c0 4.832 3.9141 8.75 8.75 8.75 4.832 0 8.75-3.918 8.75-8.75v-136.55c16.297-9.2891 28.652-24.203 34.742-41.949 6.0898-17.746 5.4961-37.105-1.6641-54.445-7.1602-17.34-20.398-31.477-37.234-39.754h65.055c4.6406 0 9.0938-1.8438 12.375-5.125s5.125-7.7344 5.125-12.375v-20.781c0-4.6406-1.8438-9.0938-5.125-12.375s-7.7344-5.125-12.375-5.125zm-297.5-205.62h70v131.25h-70zm-114.23 261.41c-2.4141 1.6094-3.875 4.3164-3.8945 7.2188v45.195l-21.875 14.305-21.875-14.086v-45.414c-0.019531-2.9023-1.4805-5.6094-3.8945-7.2188zm-30.496 84.219c2.8906 1.8672 6.6055 1.8672 9.4961 0l30.625-19.73c2.4727-1.6094 3.9688-4.3555 3.9805-7.3086v-34.211c13.879 11.297 21.918 28.258 21.875 46.156 0 21.883-11.676 42.102-30.625 53.043-18.949 10.941-42.301 10.941-61.25 0-18.949-10.941-30.625-31.16-30.625-53.043-0.042969-17.898 7.9961-34.859 21.875-46.156v34.125c0.003906 2.9766 1.5195 5.7422 4.0234 7.3516zm367.5-84.262c-2.4766 1.5898-3.9883 4.3164-4.0234 7.2617v45.195l-21.875 14.305-21.875-14.086v-45.414c-0.019531-2.9023-1.4805-5.6094-3.8945-7.2188zm13.477 57.223v-34.211c13.879 11.297 21.918 28.258 21.875 46.156 0 21.883-11.676 42.102-30.625 53.043-18.949 10.941-42.301 10.941-61.25 0-18.949-10.941-30.625-31.16-30.625-53.043-0.042969-17.898 7.9961-34.859 21.875-46.156v34.125c0.003906 2.9766 1.5195 5.7422 4.0234 7.3516l30.625 19.73c2.8906 1.8672 6.6055 1.8672 9.4961 0l30.625-19.73c2.4609-1.6016 3.957-4.3281 3.9805-7.2656z"/>
 </g>
</svg>
